# xmcd CD database file
#
# Track frame offsets:
#	150
#	18041
#	37019
#	58223
#	77524
#	99861
#	115138
#	133910
#	158825
#	176019
#	194890
#
# Disc length: 2862 seconds
#
# Revision: 0
# Processed by: cddbd v1.5.2PL0 Copyright (c) Steve Scherf et al.
# Submitted via: CDex 1.51
#
DISCID=900b2c0b
DTITLE=Laura Fedele - Monna Lizard
DYEAR=2009
DGENRE=Jazz
TTITLE0=Non mi annoio
TTITLE1=La palla
TTITLE2=Amore che vieni amore che vai
TTITLE3=Sparami
TTITLE4=Monna Lisa
TTITLE5=Dove...quando
TTITLE6=Parole
TTITLE7=Sognando
TTITLE8=La voce
TTITLE9=Un cuore morbido
TTITLE10=L'avance
EXTD=YEAR: 2009
EXTT0=
EXTT1=
EXTT2=
EXTT3=
EXTT4=
EXTT5=
EXTT6=
EXTT7=
EXTT8=
EXTT9=
EXTT10=
PLAYORDER=
